# xmcd CD database file
#
# Track frame offsets:
#	150
#	16452
#	26495
#	43290
#	61625
#	75922
#	90782
#	110807
#	122985
#	137592
#	159510
#	178297
#
# Disc length: 2522 seconds
#
# Revision: 0
# Processed by: cddbd v1.5PL3 Copyright (c) Steve Scherf et al.
# Submitted via: cdripper 1.0.7
#
DISCID=9309d80c
DTITLE=Mary Flower - Ladyfingers
DYEAR=2001
DGENRE=Blues
TTITLE0=Virginia Bound
TTITLE1=Ladyfingers
TTITLE2=Some Cold Rainy Day
TTITLE3=Baby Please Don't Go/Green Onions
TTITLE4=Bluesette
TTITLE5=Goin' Down Slow
TTITLE6=Run Sinner Run
TTITLE7=Can't Afford to Lose My Man
TTITLE8=Monkeys on a Binge
TTITLE9=I Almost Lost My Mind
TTITLE10=Yes Sir, That's My Baby/I'll See You in My
TTITLE11=Song for Samantha
EXTD=YEAR: 2001
EXTT0=
EXTT1=
EXTT2=
EXTT3=
EXTT4=
EXTT5=
EXTT6=
EXTT7=
EXTT8=
EXTT9=
EXTT10=
EXTT11=
PLAYORDER=
